{"title":"Rookie.Blue.S04E10.HDTV.XviD-ALPHA","uid":8841226,"size":370063852,"categoryP":"video","categoryS":"tv_shows","magnet":"?xt=urn:btih:be9d35489cef5142d2da6b293721f87a91b83217&amp;dn=Rookie.Blue.S04E10.HDTV.XviD-ALPHA&amp;tr=udp%3A%2F%2Ftracker.openbittorrent.com%3A80&amp;tr=udp%3A%2F%2Fopen.demonii.com%3A1337&amp;tr=udp%3A%2F%2Ftracker.coppersurfer.tk%3A6969&amp;tr=udp%3A%2F%2Fexodus.desync.com%3A6969","seeders":1,"leechers":0,"uploader":"p2pimp","files":1,"time":1377250742,"description":"General\nComplete name                            : Rookie.Blue.S04E10.HDTV.XviD-ALPHA.avi\nFormat                                   : AVI\nFormat/Info                              : Audio Video Interleave\nFile size                                : 353 MiB\nDuration                                 : 41mn 5s\nOverall bit rate mode                    : Variable\nOverall bit rate                         : 1 201 Kbps\n\nVideo\nID                                       : 0\nFormat                                   : MPEG-4 Visual\nFormat profile                           : Advanced Simple@L4\nFormat settings, BVOP                    : 2\nFormat settings, QPel                    : No\nFormat settings, GMC                     : No warppoints\nFormat settings, Matrix                  : Default (MPEG)\nCodec ID                                 : DIVX\nCodec ID/Info                            : Project Mayo\nCodec ID/Hint                            : DivX 4\nDuration                                 : 41mn 5s\nBit rate                                 : 1 000 Kbps\nWidth                                    : 644 pixels\nHeight                                   : 360 pixels\nDisplay aspect ratio                     : 16:9\nFrame rate                               : 23.976 fps\nColor space                              : YUV\nChroma subsampling                       : 4:2:0\nBit depth                                : 8 bits\nScan type                                : Progressive\nCompression mode                         : Lossy\nBits/(Pixel*Frame)                       : 0.180\nStream size                              : 294 MiB (83%)\nWriting library                          : XviD 64\n\nAudio\nID                                       : 1\nFormat                                   : MPEG Audio\nFormat version                           : Version 1\nFormat profile                           : Layer 3\nCodec ID                                 : 55\nCodec ID/Hint                            : MP3\nDuration                                 : 23mn 38s\nSource duration                          : 40mn 3s\nBit rate mode                            : Variable\nBit rate                                 : 192 Kbps\nChannel(s)                               : 2 channels\nSampling rate                            : 48.0 KHz\nCompression mode                         : Lossy\nStream size                              : 55.0 MiB (16%)\nAlignment                                : Aligned on interleaves\nInterleave, duration                     : 24 ms (0.58 video frame)","torrent":{"xt":"urn:btih:be9d35489cef5142d2da6b293721f87a91b83217","amp;dn":"Rookie.Blue.S04E10.HDTV.XviD-ALPHA","amp;tr":["udp%3A%2F%2Ftracker.openbittorrent.com%3A80","udp%3A%2F%2Fopen.demonii.com%3A1337","udp%3A%2F%2Ftracker.coppersurfer.tk%3A6969","udp%3A%2F%2Fexodus.desync.com%3A6969"],"infoHash":"be9d35489cef5142d2da6b293721f87a91b83217","infoHashBuffer":{"type":"Buffer","data":[190,157,53,72,156,239,81,66,210,218,107,41,55,33,248,122,145,184,50,23]},"announce":[],"urlList":[]}}